_________________________  Visit us at _________________________
  
http://p2pdl.com  ____________________________  http://p2pdl.com


Percy Jackson And The Lightning Thief 2010 BRRip 720p x264 AAC - PRiSTiNE [P2PDL]

Genre: Adventure | Family | Fantasy
Plot: A teenager discovers he's the descendant of 
a Greek god and sets out on an adventure to 
settle an on-going battle between the gods.
Director: Chris Columbus
Stars: Logan Lerman, Brandon T. Jackson, Steve Coogan
Rated: Rated PG for action violence and peril, some scary images and suggestive material, and mild language

Info: 
http://www.imdb.com/title/tt0814255/

General
Complete name                  : Percy Jackson And The Lightning Thief 2010 BRRip 720p x264 AAC - PRiSTiNE.mp4
Format                         : MPEG-4
File size                      : 700 MiB
Duration                       : 1h 58mn
Overall bit rate mode          : Variable
Overall bit rate               : 825 Kbps

Video
Format                         : AVC
Format/Info                    : Advanced Video Codec
Format profile                 : High 10@L4.1
Bit rate                       : 742 Kbps
Width                          : 1 280 pixels
Height                         : 544 pixels
Display aspect ratio           : 2.35:1
Frame rate mode                : Constant
Frame rate                     : 23.976 fps
Bit depth                      : 10 bits
Stream size                    : 629 MiB (90%)
Writing library                : x264 core 130 r2273 b3065e6

Audio
Format                         : AAC
Format/Info                    : Advanced Audio Codec
Bit rate                       : 80.0 Kbps
Channel(s)                     : 2 channels
Channel positions              : Front: L R
Sampling rate                  : 48.0 KHz
Stream size                    : 67.9 MiB (10%)
Language                       : English

Subtitle                       : Yes (English)
Source                         : 720p.BluRay.DTS.x264-HiDt (Thanks)

Screenshots:
 
http://www.ultraimg.com/images/i4zMU.jpg 
http://www.ultraimg.com/images/oPScH.jpg 
http://www.ultraimg.com/images/oDkqc.jpg 
http://www.ultraimg.com/images/pf29H.jpg 
http://www.ultraimg.com/images/aVieb.jpg 
http://www.ultraimg.com/images/ONdnG.jpg 
http://www.ultraimg.com/images/zABk.jpg 
http://www.ultraimg.com/images/58U2A.jpg

----------------------------------------------------------------------------------------------------


Encoded using revolutionary 10bit encoding, which enables us to provide you more crispier 
and sharper images at small sizes, just make sure you follow our instructions without a fault.
Recommend to you to use latest version of VLC player. Install K-Lite Codec Pack or shark007 codecs
in case of any kind of problem in playback (For non-VLC Media Player users). Alternatively, install
Core AVC codecs, the fastest decoder that there is coupled with Community Center Codec Pack and play
on Windows Media Player Classic. Check sample to be sure.
Enjoy!

Encoder Notes:Looking For Early Access To Anything You Can Provide DVDScr, R5, DVDR, BluRay, Direct
Audio, Music Releases and Seedboxes. We require dedicated servers, so as to do more 
and fast releases of movies.
If You Got anything to offer please contact us at "prg@hush.com".

Face book Fan Page:   
http://www.fb.me/p2pdl